<svg width="24" height="24" viewBox="0 0 24 24" fill="none" xmlns="http://www.w3.org/2000/svg">
<path fill-rule="evenodd" clip-rule="evenodd" d="M11.1256 19.6671C8.92593 16.7524 5.9391 13.2193 6.00094 9.72803C6.05859 6.44955 8.50461 4 11.7989 4C15.0932 4 17.5303 6.44937 17.5969 9.72803C17.6586 13.2193 14.6719 16.7559 12.4715 19.6671C12.315 19.8765 12.0693 20 11.8078 20C11.5463 20 11.2999 19.8765 11.1435 19.6671H11.1256ZM11.79 7.6478C10.9486 7.64711 10.1895 8.15361 9.86699 8.93052C9.54443 9.70811 9.72218 10.6031 10.3165 11.198C10.9116 11.7938 11.8065 11.9715 12.5841 11.6496C13.3616 11.3278 13.8681 10.5694 13.8681 9.72788C13.8688 9.17609 13.6499 8.64694 13.2601 8.25711C12.8702 7.86659 12.3418 7.6478 11.79 7.6478Z" fill="black"/>
</svg>
