<svg width="14" height="14" viewBox="0 0 14 14" fill="none" xmlns="http://www.w3.org/2000/svg">
<path d="M12.0562 2.59599H5.14936C4.85457 2.59599 4.61667 2.83388 4.61667 3.12867C4.61667 3.42346 4.85457 3.66136 5.14936 3.66136H12.0562C12.342 3.66136 12.6027 3.79453 12.7699 4.02897C12.9371 4.26133 12.9794 4.55125 12.8871 4.82246L11.6691 8.3952C11.5485 8.75032 11.2148 8.99032 10.8382 8.99032H5.75619C5.34627 8.99032 4.9856 8.69901 4.8989 8.29811L3.65942 2.53425C3.46799 1.64436 2.66896 1 1.75968 1H0.532688C0.237898 1 0 1.2379 0 1.53269C0 1.82748 0.237898 2.06538 0.532688 2.06538H1.75968C2.1696 2.06538 2.53027 2.35669 2.61697 2.75759L3.85645 8.52145C4.04788 9.41134 4.84691 10.0557 5.75619 10.0557H10.8382C11.6691 10.0557 12.4078 9.52647 12.6763 8.73992L13.8943 5.16718C14.0982 4.56721 14.0046 3.92632 13.6349 3.4096C13.2659 2.89285 12.6902 2.5967 12.0549 2.5967L12.0562 2.59599Z" fill="black"/>
<path d="M5.50444 10.7637C4.62357 10.7637 3.90637 11.4809 3.90637 12.3617C3.90637 13.2426 4.62357 13.9598 5.50444 13.9598C6.38531 13.9598 7.1025 13.2426 7.1025 12.3617C7.1025 11.4809 6.38531 10.7637 5.50444 10.7637ZM5.50444 12.8944C5.21174 12.8944 4.97175 12.6544 4.97175 12.3617C4.97175 12.069 5.21174 11.829 5.50444 11.829C5.79713 11.829 6.03712 12.069 6.03712 12.3617C6.03712 12.6544 5.79713 12.8944 5.50444 12.8944Z" fill="black"/>
<path d="M10.6538 10.7637C9.77298 10.7637 9.05579 11.4809 9.05579 12.3617C9.05579 13.2426 9.77298 13.9598 10.6538 13.9598C11.5347 13.9598 12.2519 13.2426 12.2519 12.3617C12.2519 11.4809 11.5347 10.7637 10.6538 10.7637ZM10.6538 12.8944C10.3612 12.8944 10.1212 12.6544 10.1212 12.3617C10.1212 12.069 10.3612 11.829 10.6538 11.829C10.9465 11.829 11.1865 12.069 11.1865 12.3617C11.1865 12.6544 10.9465 12.8944 10.6538 12.8944Z" fill="black"/>
</svg>
