<svg width="14" height="14" viewBox="0 0 14 14" fill="none" xmlns="http://www.w3.org/2000/svg">
<g clip-path="url(#clip0_2061_729)">
<path d="M1.90909 0C0.854729 0 0 0.854729 0 1.90909C0 2.96345 0.854729 3.81818 1.90909 3.81818C2.96345 3.81818 3.81818 2.96345 3.81818 1.90909C3.81818 0.854729 2.96345 0 1.90909 0ZM7 0C5.94564 0 5.09091 0.854729 5.09091 1.90909C5.09091 2.96345 5.94564 3.81818 7 3.81818C8.05436 3.81818 8.90909 2.96345 8.90909 1.90909C8.90909 0.854729 8.05436 0 7 0ZM12.0909 0C11.0365 0 10.1818 0.854729 10.1818 1.90909C10.1818 2.96345 11.0365 3.81818 12.0909 3.81818C13.1453 3.81818 14 2.96345 14 1.90909C14 0.854729 13.1453 0 12.0909 0ZM1.90909 5.09091C0.854729 5.09091 0 5.94564 0 7C0 8.05436 0.854729 8.90909 1.90909 8.90909C2.96345 8.90909 3.81818 8.05436 3.81818 7C3.81818 5.94564 2.96345 5.09091 1.90909 5.09091ZM7 5.09091C5.94564 5.09091 5.09091 5.94564 5.09091 7C5.09091 8.05436 5.94564 8.90909 7 8.90909C8.05436 8.90909 8.90909 8.05436 8.90909 7C8.90909 5.94564 8.05436 5.09091 7 5.09091ZM12.0909 5.09091C11.0365 5.09091 10.1818 5.94564 10.1818 7C10.1818 8.05436 11.0365 8.90909 12.0909 8.90909C13.1453 8.90909 14 8.05436 14 7C14 5.94564 13.1453 5.09091 12.0909 5.09091ZM1.90909 10.1818C0.854729 10.1818 0 11.0365 0 12.0909C0 13.1453 0.854729 14 1.90909 14C2.96345 14 3.81818 13.1453 3.81818 12.0909C3.81818 11.0365 2.96345 10.1818 1.90909 10.1818ZM7 10.1818C5.94564 10.1818 5.09091 11.0365 5.09091 12.0909C5.09091 13.1453 5.94564 14 7 14C8.05436 14 8.90909 13.1453 8.90909 12.0909C8.90909 11.0365 8.05436 10.1818 7 10.1818ZM12.0909 10.1818C11.0365 10.1818 10.1818 11.0365 10.1818 12.0909C10.1818 13.1453 11.0365 14 12.0909 14C13.1453 14 14 13.1453 14 12.0909C14 11.0365 13.1453 10.1818 12.0909 10.1818Z" fill="white"/>
</g>
<defs>
<clipPath id="clip0_2061_729">
<rect width="14" height="14" fill="white"/>
</clipPath>
</defs>
</svg>
