<svg width="14" height="14" viewBox="0 0 14 14" fill="none" xmlns="http://www.w3.org/2000/svg">
<path d="M11.849 3.87261L11.849 3.87297C11.859 4.06921 11.7904 4.26837 11.6715 4.41798L6.34032 10.4214C6.18908 10.5822 6.00263 10.6689 5.80991 10.6796H5.75488C5.56621 10.6796 5.37888 10.6098 5.24334 10.4837L5.24335 10.4837L5.24204 10.4825L2.3971 7.89772L2.39713 7.89769L2.39451 7.89542C2.25023 7.7703 2.16109 7.58545 2.15096 7.37581L2.00114 7.38305L2.15096 7.37581C2.14083 7.16611 2.21084 6.97012 2.34693 6.82414L2.347 6.8242L2.35054 6.82013C2.47565 6.67585 2.66051 6.58671 2.87015 6.57658C3.07985 6.56644 3.27584 6.63645 3.42182 6.77255L3.42181 6.77256L3.42329 6.7739L5.58255 8.73391L5.69478 8.83579L5.79548 8.7225L10.517 3.41081L10.517 3.41082L10.5182 3.40943C10.6466 3.2614 10.8331 3.16378 11.0378 3.15389L11.0378 3.15407L11.045 3.15337C11.2497 3.13358 11.4434 3.2017 11.5895 3.33787C11.7419 3.47993 11.8392 3.66864 11.849 3.87261Z" fill="black" stroke="white" stroke-width="0.3"/>
</svg>
