<svg width="20" height="20" viewBox="0 0 20 20" fill="none" xmlns="http://www.w3.org/2000/svg">
<rect width="20" height="20" rx="4" fill="black"/>
<path d="M15.8488 6.04568L15.8488 6.04604C15.8612 6.28948 15.7761 6.53586 15.6288 6.72089L9.23052 13.9259C9.04387 14.1245 8.81262 14.2324 8.57272 14.2455H8.50585C8.27237 14.2455 8.04013 14.1592 7.87157 14.0024L7.87028 14.0012L4.45635 10.8995L4.45637 10.8994L4.45375 10.8972C4.27407 10.7413 4.16372 10.5117 4.15119 10.2524L4.00139 10.2597L4.15119 10.2524C4.13866 9.99311 4.22527 9.7499 4.39437 9.56851L4.39444 9.56857L4.39798 9.5645C4.5538 9.38481 4.78348 9.27446 5.04273 9.26193C5.30204 9.2494 5.54525 9.33601 5.72664 9.50512L5.72663 9.50513L5.72811 9.50646L8.31922 11.8585L8.43146 11.9604L8.53215 11.8471L14.198 5.47304L14.198 5.47305L14.1992 5.47166C14.3582 5.28822 14.5896 5.167 14.8439 5.15471L14.8439 5.15488L14.8511 5.15419C15.1054 5.1296 15.3464 5.21432 15.5278 5.3835C15.7156 5.55858 15.8365 5.7921 15.8488 6.04568Z" fill="white" stroke="#55AC95" stroke-width="0.3"/>
</svg>
