<svg width="14" height="14" viewBox="0 0 14 14" fill="none" xmlns="http://www.w3.org/2000/svg">
<path d="M12.8488 3.34646L12.8488 3.34682C12.8612 3.59026 12.7761 3.83665 12.6288 4.02167L6.23052 11.2267C6.04387 11.4253 5.81262 11.5332 5.57272 11.5463H5.50585C5.27237 11.5463 5.04013 11.46 4.87157 11.3032L4.87028 11.302L1.45635 8.20025L1.45637 8.20022L1.45375 8.19795C1.27407 8.04213 1.16372 7.81245 1.15119 7.5532L1.00139 7.56044L1.15119 7.5532C1.13866 7.29389 1.22527 7.05068 1.39437 6.86929L1.39444 6.86935L1.39798 6.86528C1.5538 6.68559 1.78348 6.57524 2.04273 6.56271C2.30204 6.55018 2.54525 6.63679 2.72664 6.8059L2.72663 6.80591L2.72811 6.80725L5.31922 9.15926L5.43146 9.26114L5.53215 9.14785L11.198 2.77382L11.198 2.77383L11.1992 2.77244C11.3582 2.589 11.5896 2.46778 11.8439 2.45549L11.8439 2.45566L11.8511 2.45497C12.1054 2.43038 12.3464 2.5151 12.5278 2.68428C12.7156 2.85936 12.8365 3.09288 12.8488 3.34646Z" fill="#55AC95" stroke="white" stroke-width="0.3"/>
</svg>
