<svg width="20" height="20" viewBox="0 0 20 20" fill="none" xmlns="http://www.w3.org/2000/svg">
<path d="M9.50595 14.7421C9.561 14.822 9.63465 14.8874 9.72058 14.9326C9.8065 14.9777 9.90212 15.0013 9.99919 15.0013C10.0963 15.0013 10.1919 14.9777 10.2778 14.9326C10.3637 14.8874 10.4374 14.822 10.4924 14.7421L15.8928 6.94147C15.9554 6.8515 15.992 6.74612 15.9988 6.63677C16.0057 6.52743 15.9824 6.41831 15.9315 6.32126C15.8807 6.22422 15.8042 6.14296 15.7105 6.08632C15.6167 6.02968 15.5092 5.99983 15.3996 6H4.59876C4.48946 6.00045 4.38235 6.03069 4.28895 6.08747C4.19555 6.14424 4.11939 6.2254 4.06866 6.32222C4.01794 6.41904 3.99457 6.52786 4.00106 6.63697C4.00756 6.74608 4.04367 6.85135 4.10553 6.94147L9.50595 14.7421Z" fill="black"/>
</svg>
