<?xml version="1.0" encoding="utf-8"?>
<!-- Generator: Adobe Illustrator 24.3.0, SVG Export Plug-In . SVG Version: 6.00 Build 0)  -->
<svg version="1.1" id="Слой_1" xmlns="http://www.w3.org/2000/svg" xmlns:xlink="http://www.w3.org/1999/xlink" x="0px" y="0px"
	 viewBox="0 0 500 500" style="enable-background:new 0 0 500 500;" xml:space="preserve">
<style type="text/css">
	.st0{fill:url(#SVGID_1_);}
	.st1{fill:url(#SVGID_2_);}
	.st2{fill:url(#SVGID_3_);}
	.st3{fill:url(#SVGID_4_);}
	.st4{fill:url(#SVGID_5_);}
	.st5{fill:url(#SVGID_6_);}
	.st6{fill:url(#SVGID_7_);}
	.st7{fill:url(#SVGID_8_);}
	.st8{fill:#8D8E8E;}
	.st9{fill:url(#SVGID_9_);}
</style>
<g>
	<linearGradient id="SVGID_1_" gradientUnits="userSpaceOnUse" x1="186.8461" y1="274.6478" x2="211.2773" y2="274.6478">
		<stop  offset="0.2581" style="stop-color:#12AF94"/>
		<stop  offset="0.3532" style="stop-color:#05A591"/>
		<stop  offset="0.5338" style="stop-color:#008C88"/>
		<stop  offset="0.7784" style="stop-color:#006576"/>
		<stop  offset="1" style="stop-color:#014363"/>
	</linearGradient>
	<rect x="186.85" y="265.58" class="st0" width="24.43" height="18.14"/>
	<linearGradient id="SVGID_2_" gradientUnits="userSpaceOnUse" x1="215.6388" y1="307.6613" x2="240.07" y2="307.6613">
		<stop  offset="0.2581" style="stop-color:#12AF94"/>
		<stop  offset="0.3532" style="stop-color:#05A591"/>
		<stop  offset="0.5338" style="stop-color:#008C88"/>
		<stop  offset="0.7784" style="stop-color:#006576"/>
		<stop  offset="1" style="stop-color:#014363"/>
	</linearGradient>
	<rect x="215.64" y="288.08" class="st1" width="24.43" height="39.16"/>
	<linearGradient id="SVGID_3_" gradientUnits="userSpaceOnUse" x1="186.8461" y1="307.6613" x2="211.2773" y2="307.6613">
		<stop  offset="0.2581" style="stop-color:#12AF94"/>
		<stop  offset="0.3532" style="stop-color:#05A591"/>
		<stop  offset="0.5338" style="stop-color:#008C88"/>
		<stop  offset="0.7784" style="stop-color:#006576"/>
		<stop  offset="1" style="stop-color:#014363"/>
	</linearGradient>
	<rect x="186.85" y="288.08" class="st2" width="24.43" height="39.16"/>
	<linearGradient id="SVGID_4_" gradientUnits="userSpaceOnUse" x1="215.6388" y1="274.6478" x2="240.07" y2="274.6478">
		<stop  offset="0.2581" style="stop-color:#12AF94"/>
		<stop  offset="0.3532" style="stop-color:#05A591"/>
		<stop  offset="0.5338" style="stop-color:#008C88"/>
		<stop  offset="0.7784" style="stop-color:#006576"/>
		<stop  offset="1" style="stop-color:#014363"/>
	</linearGradient>
	<rect x="215.64" y="265.58" class="st3" width="24.43" height="18.14"/>
	<linearGradient id="SVGID_5_" gradientUnits="userSpaceOnUse" x1="24.4375" y1="345.2769" x2="475.5625" y2="345.2769">
		<stop  offset="0.2581" style="stop-color:#12AF94"/>
		<stop  offset="0.3532" style="stop-color:#05A591"/>
		<stop  offset="0.5338" style="stop-color:#008C88"/>
		<stop  offset="0.7784" style="stop-color:#006576"/>
		<stop  offset="1" style="stop-color:#014363"/>
	</linearGradient>
	<path class="st4" d="M370.96,272.88c29.96-0.61,59.54,1.8,87.17,14.45c20.49,9.38,22.96,24.79,7.18,40.87
		c-16.18,16.49-36.28,27.12-57.04,36.48c-71.61,32.29-147.28,47.16-225.25,51.91c-41.22,2.51-82.21,1.64-122.46-9.15
		c-8.76-2.35-16.96-5.87-24.72-10.56c-12.43-7.53-15.08-19.81-6.05-31.42c8.55-11,19.74-19,32.09-25.21
		c10.01-5.03,19.23-12.02,30.91-13.16c-0.1,3.12-2.46,4.8-4.4,6.66c-17.61,17-5.37,30.06,10.21,36.27
		c13.47,5.37,27.95,7.63,42.45,8.56c69.59,4.5,136.59-7.35,201.01-33.46c20.19-8.19,40.29-17.55,54.32-35.42
		c8.85-11.26,6.81-21.12-5.67-28.13C384.48,278.07,377.57,275.74,370.96,272.88z"/>
	<linearGradient id="SVGID_6_" gradientUnits="userSpaceOnUse" x1="91.3996" y1="403.4262" x2="426.5928" y2="403.4262">
		<stop  offset="0.2581" style="stop-color:#12AF94"/>
		<stop  offset="0.3532" style="stop-color:#05A591"/>
		<stop  offset="0.5338" style="stop-color:#008C88"/>
		<stop  offset="0.7784" style="stop-color:#006576"/>
		<stop  offset="1" style="stop-color:#014363"/>
	</linearGradient>
	<path class="st5" d="M422.6,361.62c-4.71,2.37-9.5,4.62-14.32,6.8c-33.8,15.24-68.51,26.6-103.94,34.85
		c-38.5,11.8-78.36,17.68-119.58,16.95c-0.58,0.04-1.15,0.08-1.73,0.11c-30.4,1.85-60.67,1.85-90.62-2.6
		c-2.7,6.14,0.14,12.01,7.74,15.78c5.85,2.89,12.01,5.02,18.57,6.39c30.14,6.29,60.7,6.19,91.38,3.92
		c58.04-4.3,114.23-15.06,167.15-36.94c15.34-6.34,30.17-13.49,42-24.34C427.78,374.7,428.85,367.27,422.6,361.62z"/>
	<g>
		<linearGradient id="SVGID_7_" gradientUnits="userSpaceOnUse" x1="159.6412" y1="449.3593" x2="342.0424" y2="449.3593">
			<stop  offset="0.2581" style="stop-color:#12AF94"/>
			<stop  offset="0.3532" style="stop-color:#05A591"/>
			<stop  offset="0.5338" style="stop-color:#008C88"/>
			<stop  offset="0.7784" style="stop-color:#006576"/>
			<stop  offset="1" style="stop-color:#014363"/>
		</linearGradient>
		<path class="st6" d="M212.62,448.58c-12.72,0.94-24.41,1.42-35.32,1.42c-6.12,0-11.97-0.17-17.66-0.47
			c22.12,15.09,48.86,23.92,77.66,23.92c41.91,0,79.43-18.69,104.74-48.18C303.13,437.36,260.43,445.04,212.62,448.58z"/>
	</g>
	<linearGradient id="SVGID_8_" gradientUnits="userSpaceOnUse" x1="99.2688" y1="277.7636" x2="375.3433" y2="277.7636">
		<stop  offset="0.2581" style="stop-color:#12AF94"/>
		<stop  offset="0.3532" style="stop-color:#05A591"/>
		<stop  offset="0.5338" style="stop-color:#008C88"/>
		<stop  offset="0.7784" style="stop-color:#006576"/>
		<stop  offset="1" style="stop-color:#014363"/>
	</linearGradient>
	<path class="st7" d="M141.11,374.48c67.67,4.37,135.18-6.86,200.65-33.4c11.35-4.6,22.93-9.66,33.42-16.59
		c0.09-2.1,0.16-4.21,0.16-6.33c0-46.09-22.61-86.88-57.32-111.95c0,9.85-0.01,19.73-0.01,27.98c-0.02,4.57-0.03,9.14-0.03,13.7
		c0,3.87,0,7.75-0.02,11.62c0,0.14,0.02,0.3,0.03,0.45c0.07,0.73,0.24,2.4-1.39,3.1c-0.32,0.14-0.65,0.2-0.98,0.2
		c-0.99,0-1.83-0.6-2.39-1l-0.25-0.18c-3.63-2.49-7.25-5-10.88-7.5l-0.56-0.39c-5.59-3.86-11.18-7.73-16.8-11.56
		c-2.11-1.44-3.05-3.23-3.03-5.79c0.05-5.72,0.04-11.54,0.04-17.16c0-3.84-0.01-7.68,0.01-11.52c0-0.44,0.07-2.2,0.15-4.63
		c0.12-3.21,0.39-10.72,0.48-15.84c-14.13-4.88-29.29-7.57-45.09-7.57c-76.24,0-138.04,61.8-138.04,138.04
		c0,18.12,3.53,35.41,9.87,51.26C118.43,372.04,128.82,373.69,141.11,374.48z M183.3,262.03h60.31v21.69h0.06v4.36h-0.06v42.71
		H183.3V262.03z"/>
	<g>
		<path class="st8" d="M296.15,155.28c-0.84-7.88-2.18-15.16,1.34-22.31c3.22-6.53,8.77-8.99,15.49-9.57
			c2.91-0.25,5.87,0.11,8.79-0.09c6.98-0.48,10.08-3.04,10.6-10.82c0.49-7.29,0.61-14.61,2.87-21.59
			c2.73-8.43,6.98-15.82,15.75-19.47c1.04-0.43,2.03-0.92,3.22-0.89c6.65,0.17,10.83-3.49,13.91-8.94c1.66-2.93,3.22-5.9,5.16-8.68
			c1.88-2.69,4.45-4.34,7.35-4.92c2.76-0.56,3.86-2.09,4.91-4.31c2.69-5.7,6.59-10.6,12.97-11.78c6.43-1.19,12.14-4.64,18.73-5.13
			c3.38-0.25,6.75-0.36,10.11-0.05c2.29,0.21,4.38,1.2,5.61,3.27c0.87,1.46,1.68,1.05,2.72,0.34c5.43-3.73,14.74-3.29,19.76,1.15
			c1.96,1.73,4.09,3.15,6.17,4.68c3.5,2.57,4.46,5.49,2.8,9.39c-0.71,1.67-0.44,2.98,0.29,4.47c3.4,7.02,1.27,13.24-5.55,16.86
			c-3.26,1.73-6.26,3.15-10.13,1.22c-2-1-4.24,0.67-5.59,2.31c-3.47,4.21-8.13,5.43-13.18,5.51c-9.32,0.15-18.61-0.29-27.84-1.9
			c-5.65-0.99-9.68,2.59-13.32,6.06c-5.58,5.3-11.82,8.65-19.56,9.55c-4.33,0.5-8.49,2.13-12.36,4.21
			c-2.83,1.52-3.79,4.37-4.26,7.31c-0.81,5.08-0.96,10.32-2.27,15.26c-2.93,11.05-9.67,21.39-23.69,21.22
			c-5.09-0.06-10.07-0.71-15.02-1.64c-4.84-0.91-6.84,0.07-9.21,4.4c-2.01,3.67-3.55,7.48-4.7,11.48
			C297.74,152.92,297.62,154.07,296.15,155.28z"/>
	</g>
	<linearGradient id="SVGID_9_" gradientUnits="userSpaceOnUse" x1="280.2106" y1="208.9315" x2="320.5296" y2="208.9315">
		<stop  offset="0.2581" style="stop-color:#12AF94"/>
		<stop  offset="0.3532" style="stop-color:#05A591"/>
		<stop  offset="0.5338" style="stop-color:#008C88"/>
		<stop  offset="0.7784" style="stop-color:#006576"/>
		<stop  offset="1" style="stop-color:#014363"/>
	</linearGradient>
	<path class="st9" d="M315.41,230.73c-0.04,8.44-0.01,16.88-0.04,25.31c0,0.84,0.37,1.99-0.55,2.43c-0.8,0.38-1.56-0.36-2.2-0.85
		c-8.49-6.47-16.89-10.77-25.39-17.21c-1.59-1.2-2.26-2.62-2.25-4.77c0.07-9.56-0.04-21.36-0.01-30.93c0-1.7,0.9-24.24,0.5-25.88
		c0.04-8-0.05,4.69,0.05-3.31c0.02-1.81-1.57-2.3-3.08-2.11c-1.79,0.23-2.27-0.71-2.21-2.55c0.1-3.04,0.09-6.09,0-9.13
		c-0.05-1.67,0.34-2.44,2.02-2.43c12.09,0.06,24.18,0.05,36.26,0.01c1.41,0,2.03,0.53,1.98,2.16c-0.07,2.48-0.09,4.96,0.01,7.44
		c0.12,2.8,0.14,5.27-3.5,4.56c-1.42-0.28-1.57,0.98-1.57,2.22C315.42,191.92,315.42,214.49,315.41,230.73"/>
</g>
</svg>
