<svg width="54" height="54" viewBox="0 0 54 54" fill="none" xmlns="http://www.w3.org/2000/svg">
<path d="M27 19.5L25.76 21.8L23 22.18L25 23.96L24.52 26.5L27 25.3L29.48 26.5L29 23.96L31 22.18L28.24 21.8L27 19.5Z" stroke="#55AC95" stroke-width="2" stroke-linecap="round" stroke-linejoin="round"/>
<path d="M14.58 30.1396L9 38.1196L15.06 39.9196L18.82 44.9996L24.58 36.7796" stroke="black" stroke-width="2" stroke-linecap="round" stroke-linejoin="round"/>
<path d="M39.42 30.1396L45 38.1196L38.94 39.9196L35.18 44.9996L29.42 36.7796" stroke="black" stroke-width="2" stroke-linecap="round" stroke-linejoin="round"/>
<path d="M27 37C34.732 37 41 30.732 41 23C41 15.268 34.732 9 27 9C19.268 9 13 15.268 13 23C13 30.732 19.268 37 27 37Z" stroke="black" stroke-width="2" stroke-linecap="round" stroke-linejoin="round"/>
</svg>
