<svg width="55" height="54" viewBox="0 0 55 54" fill="none" xmlns="http://www.w3.org/2000/svg">
<path d="M36.0075 15.0272L35.935 15.4381H36.3522H37.332C37.6404 15.4405 37.9446 15.5107 38.2229 15.6438C38.4986 15.7757 38.7423 15.9661 38.9369 16.2017L45.63 25.3946L43.8563 35.7143L43.8563 35.7143L43.8555 35.719C43.7725 36.2448 43.5069 36.7246 43.1055 37.0743C42.7048 37.4232 42.1943 37.6203 41.6632 37.6312H40.0314H39.7717L39.6964 37.8798C39.3624 38.9838 38.682 39.9509 37.7558 40.6383C36.8296 41.3257 35.7068 41.6969 34.5534 41.6969C33.4001 41.6969 32.2773 41.3257 31.3511 40.6383C30.4249 39.9509 29.7445 38.9838 29.4105 37.8798L29.3352 37.6312H29.0755H25.3144H25.0547L24.9794 37.8798C24.6454 38.9838 23.965 39.9509 23.0388 40.6383C22.1126 41.3257 20.9899 41.6969 19.8365 41.6969C18.6831 41.6969 17.5603 41.3257 16.6341 40.6383C15.7079 39.9509 15.0275 38.9838 14.6935 37.8798L14.6182 37.6312H14.3585H12.3173C12.0404 37.6263 11.7676 37.5622 11.5175 37.4431C11.2666 37.3236 11.0442 37.1515 10.8656 36.9386L10.861 36.9331L10.8561 36.9278C10.6621 36.7149 10.5179 36.4615 10.434 36.1859C10.3507 35.9123 10.329 35.6236 10.3704 35.3407L11.0231 31.8324C11.0231 31.8322 11.0232 31.832 11.0232 31.8319C11.0859 31.5013 11.2757 31.2084 11.552 31.0162C11.8275 30.8246 12.167 30.7483 12.4979 30.8037C12.8274 30.8669 13.1192 31.0564 13.3108 31.3319C13.503 31.6082 13.5791 31.9488 13.5229 32.2806C13.5229 32.2807 13.5229 32.2809 13.5228 32.281L13.1142 34.6512L13.0436 35.0607H13.4591H14.3585H14.6182L14.6935 34.8121C15.0275 33.7081 15.7079 32.7409 16.6341 32.0535C17.5603 31.3661 18.6831 30.995 19.8365 30.995C20.9899 30.995 22.1126 31.3661 23.0388 32.0535C23.965 32.7409 24.6454 33.7081 24.9794 34.8121L25.0547 35.0607H25.3144H29.0755H29.341L29.4125 34.8049C29.5736 34.2286 29.8328 33.6844 30.1787 33.196L30.2243 33.1317L30.2378 33.054L33.5083 14.3307L33.5799 13.9204H33.1635H14.7673C14.4264 13.9204 14.0995 13.785 13.8585 13.544C13.6175 13.303 13.482 12.9761 13.482 12.6352C13.482 12.2944 13.6175 11.9675 13.8585 11.7264C14.0995 11.4854 14.4264 11.35 14.7673 11.35H34.301C34.8842 11.3747 35.4352 11.6235 35.8394 12.0442C36.0072 12.2696 36.13 12.5253 36.2009 12.7973C36.273 13.0735 36.2902 13.361 36.2517 13.6438L36.0075 15.0272ZM35.7799 18.0085H35.4858L35.4351 18.2982L34.2904 24.839L34.2186 25.2494H34.6352H41.6667H42.3597L41.9483 24.6916L37.1244 18.1508L37.0195 18.0085H36.8428H35.7799ZM41.0943 35.0607H41.3926L41.4399 34.7662L42.5028 28.1435L42.5679 27.7381H42.1572H34.0629H33.7648L33.7173 28.0323L33.3085 30.5669L33.2431 30.9727H33.6541H34.553C35.7091 30.974 36.8339 31.3482 37.7604 32.0396C38.6869 32.731 39.3657 33.7028 39.696 34.8107L39.7706 35.0607H40.0314H41.0943ZM17.8546 38.3278C18.3802 38.8535 19.0931 39.1488 19.8365 39.1488C20.5798 39.1488 21.2927 38.8535 21.8184 38.3278C22.344 37.8022 22.6393 37.0893 22.6393 36.3459C22.6393 35.6026 22.344 34.8897 21.8184 34.364C21.2927 33.8384 20.5798 33.5431 19.8365 33.5431C19.0931 33.5431 18.3802 33.8384 17.8546 34.364C17.3289 34.8897 17.0336 35.6026 17.0336 36.3459C17.0336 37.0893 17.3289 37.8022 17.8546 38.3278ZM32.5715 38.3278C33.0972 38.8535 33.8101 39.1488 34.5534 39.1488C35.2968 39.1488 36.0097 38.8535 36.5353 38.3278C37.061 37.8022 37.3563 37.0893 37.3563 36.3459C37.3563 35.6026 37.061 34.8897 36.5353 34.364C36.0097 33.8384 35.2968 33.5431 34.5534 33.5431C33.8101 33.5431 33.0972 33.8384 32.5715 34.364C32.0459 34.8897 31.7506 35.6026 31.7506 36.3459C31.7506 37.0893 32.0459 37.8022 32.5715 38.3278Z" fill="black" stroke="white" stroke-width="0.7"/>
<path d="M19.8365 18.8262H11.6604C11.3195 18.8262 10.9926 18.6908 10.7516 18.4498C10.5106 18.2087 10.3751 17.8818 10.3751 17.541C10.3751 17.2001 10.5106 16.8732 10.7516 16.6322C10.9926 16.3912 11.3195 16.2558 11.6604 16.2558H19.8365C20.1773 16.2558 20.5042 16.3912 20.7453 16.6322C20.9863 16.8732 21.1217 17.2001 21.1217 17.541C21.1217 17.8818 20.9863 18.2087 20.7453 18.4498C20.5042 18.6908 20.1773 18.8262 19.8365 18.8262Z" fill="#55AC95" stroke="white" stroke-width="0.7"/>
<path d="M19.9276 21.538C20.1686 21.779 20.304 22.1059 20.304 22.4467C20.304 22.7876 20.1686 23.1145 19.9276 23.3555C19.6866 23.5966 19.3597 23.732 19.0188 23.732H12.4779C12.1371 23.732 11.8102 23.5966 11.5691 23.3555C11.3281 23.1145 11.1927 22.7876 11.1927 22.4467C11.1927 22.1059 11.3281 21.779 11.5691 21.538C11.8102 21.2969 12.1371 21.1615 12.4779 21.1615H19.0188C19.3597 21.1615 19.6866 21.2969 19.9276 21.538Z" fill="#55AC95" stroke="white" stroke-width="0.7"/>
<path d="M12.3868 26.4432C12.6278 26.2022 12.9547 26.0668 13.2956 26.0668H18.2012C18.5421 26.0668 18.869 26.2022 19.11 26.4432C19.351 26.6843 19.4864 27.0112 19.4864 27.352C19.4864 27.6929 19.351 28.0198 19.11 28.2608C18.869 28.5018 18.5421 28.6372 18.2012 28.6372H13.2956C12.9547 28.6372 12.6278 28.5018 12.3868 28.2608C12.1457 28.0198 12.0103 27.6929 12.0103 27.352C12.0103 27.0112 12.1457 26.6843 12.3868 26.4432Z" fill="#55AC95" stroke="white" stroke-width="0.7"/>
</svg>
