<svg width="55" height="54" viewBox="0 0 55 54" fill="none" xmlns="http://www.w3.org/2000/svg">
<path d="M9.2 17.4595C9.2 16.7639 9.76388 16.2 10.4595 16.2H43.5405C44.236 16.2 44.7999 16.7639 44.7999 17.4595C44.7999 18.155 44.236 18.7189 43.5405 18.7189H10.4595C9.76388 18.7189 9.2 18.155 9.2 17.4595ZM9.2 27.1892C9.2 26.4936 9.76389 25.9297 10.4595 25.9297H24.0811C24.7766 25.9297 25.3405 26.4936 25.3405 27.1892C25.3405 27.8847 24.7766 28.4486 24.0811 28.4486H10.4595C9.76389 28.4486 9.2 27.8847 9.2 27.1892ZM9.2 36.9189C9.2 36.2233 9.76389 35.6594 10.4595 35.6594H24.0811C24.7766 35.6594 25.3405 36.2233 25.3405 36.9189C25.3405 37.6144 24.7766 38.1783 24.0811 38.1783H10.4595C9.76389 38.1783 9.2 37.6144 9.2 36.9189Z" fill="black" stroke="white" stroke-width="0.4"/>
<path d="M44.3151 26.1964L44.3152 26.1965C44.8636 26.6241 44.9613 27.4156 44.5336 27.9641L36.9444 37.6938L36.9444 37.6938C36.7107 37.9935 36.3542 38.1715 35.9741 38.1784C35.5941 38.1853 35.2314 38.0202 34.9869 37.7292C34.9869 37.7292 34.9869 37.7292 34.9869 37.7292L30.9004 32.8643L30.9004 32.8643C30.4531 32.3319 30.5222 31.5374 31.0548 31.09L31.0548 31.09C31.5874 30.6425 32.3819 30.7117 32.8292 31.2442L35.7561 34.7288L35.915 34.9179L36.067 34.7231L42.5473 26.4149C42.5473 26.4149 42.5473 26.4149 42.5474 26.4149C42.9753 25.8664 43.7667 25.7686 44.3151 26.1964Z" fill="#55AC95" stroke="white" stroke-width="0.4"/>
</svg>
