<svg width="55" height="54" viewBox="0 0 55 54" fill="none" xmlns="http://www.w3.org/2000/svg">
<path d="M37.5934 19.2548C37.4974 19.2388 37.3854 19.2388 37.2895 19.2548C35.0818 19.1749 33.322 17.3671 33.322 15.1274C33.322 12.8397 35.1618 11 37.4494 11C39.7371 11 41.5769 12.8557 41.5769 15.1274C41.5609 17.3671 39.8011 19.1749 37.5934 19.2548Z" stroke="black" stroke-width="2" stroke-linecap="round" stroke-linejoin="round"/>
<path d="M35.9447 30.9017C38.1364 31.2697 40.552 30.8857 42.2478 29.7499C44.5035 28.2461 44.5035 25.7825 42.2478 24.2787C40.536 23.1428 38.0884 22.7588 35.8967 23.1428" stroke="black" stroke-width="2" stroke-linecap="round" stroke-linejoin="round"/>
<path d="M18.3456 19.2548C18.4416 19.2388 18.5536 19.2388 18.6496 19.2548C20.8573 19.1749 22.617 17.3671 22.617 15.1274C22.617 12.8397 20.7773 11 18.4896 11C16.2019 11 14.3622 12.8557 14.3622 15.1274C14.3782 17.3671 16.1379 19.1749 18.3456 19.2548Z" stroke="black" stroke-width="2" stroke-linecap="round" stroke-linejoin="round"/>
<path d="M19.9949 30.9017C17.8032 31.2697 15.3875 30.8857 13.6918 29.7499C11.4361 28.2461 11.4361 25.7825 13.6918 24.2787C15.4035 23.1428 17.8512 22.7588 20.0429 23.1428" stroke="black" stroke-width="2" stroke-linecap="round" stroke-linejoin="round"/>
<path d="M27.9979 31.2055C27.9019 31.1895 27.79 31.1895 27.694 31.2055C25.4863 31.1255 23.7265 29.3178 23.7265 27.0781C23.7265 24.7904 25.5663 22.9507 27.854 22.9507C30.1416 22.9507 31.9814 24.8064 31.9814 27.0781C31.9654 29.3178 30.2056 31.1415 27.9979 31.2055Z" stroke="#55AC95" stroke-width="2" stroke-linecap="round" stroke-linejoin="round"/>
<path d="M23.3435 36.245C21.0878 37.7488 21.0878 40.2122 23.3435 41.716C25.9031 43.4278 30.0945 43.4278 32.6542 41.716C34.9099 40.2122 34.9099 37.7488 32.6542 36.245C30.1105 34.5492 25.9031 34.5492 23.3435 36.245Z" stroke="#55AC95" stroke-width="2" stroke-linecap="round" stroke-linejoin="round"/>
</svg>
