<svg width="55" height="54" viewBox="0 0 55 54" fill="none" xmlns="http://www.w3.org/2000/svg">
<path d="M36.0192 35.3081V45.0004L27.7115 40.8466L19.4038 45.0004V35.3081" stroke="black" stroke-width="2" stroke-miterlimit="10" stroke-linecap="round" stroke-linejoin="round"/>
<path d="M30.8962 9H24.5269C21.6192 9 18.85 10.5231 17.3269 13.1538L14.1423 18.6923C12.6192 21.3231 12.6192 24.3692 14.1423 27L17.3269 32.5385C18.85 35.1692 21.6192 36.6923 24.5269 36.6923H30.8962C33.8038 36.6923 36.5731 35.1692 38.0962 32.5385L41.2808 27C42.8038 24.3692 42.8038 21.3231 41.2808 18.6923L38.0962 13.1538C36.5731 10.5231 33.9423 9 30.8962 9Z" stroke="black" stroke-width="2" stroke-miterlimit="10" stroke-linecap="round" stroke-linejoin="round"/>
<path d="M24.9423 27.0001L30.4808 18.6924" stroke="#55AC95" stroke-width="2" stroke-miterlimit="10" stroke-linecap="round" stroke-linejoin="round"/>
<path d="M23.5577 17.3076V21.4615" stroke="#55AC95" stroke-width="2" stroke-miterlimit="10" stroke-linecap="round" stroke-linejoin="round"/>
<path d="M31.8654 24.231V28.3848" stroke="#55AC95" stroke-width="2" stroke-miterlimit="10" stroke-linecap="round" stroke-linejoin="round"/>
</svg>
