<svg width="16" height="16" viewBox="0 0 16 16" fill="none" xmlns="http://www.w3.org/2000/svg">
<path d="M14.6769 2.36778C14.6769 1.88904 14.6766 1.64949 14.5834 1.46664C14.5015 1.3058 14.3712 1.17512 14.2104 1.09317C14.0275 1 13.7877 1 13.3089 1H2.36736C1.88863 1 1.64949 1 1.46664 1.09317C1.3058 1.17512 1.17512 1.3058 1.09317 1.46664C1 1.64949 1 1.88904 1 2.36778V2.998C1 3.20707 1 3.31169 1.02362 3.41007C1.04456 3.49729 1.07918 3.58061 1.12605 3.65709C1.17889 3.74332 1.25295 3.81737 1.40069 3.96512L5.72837 8.2928C5.8762 8.4406 5.94972 8.51412 6.00258 8.60045C6.04945 8.67687 6.08454 8.76047 6.10548 8.84775C6.12886 8.94511 6.12885 9.04846 6.12885 9.25335V13.3187C6.12885 14.0514 6.12886 14.418 6.28315 14.6387C6.41795 14.8313 6.62584 14.9599 6.85843 14.9943C7.12479 15.0336 7.4527 14.8699 8.10808 14.5422L8.79193 14.2003C9.06641 14.0631 9.20326 13.9942 9.30353 13.8918C9.39217 13.8013 9.46005 13.6926 9.50133 13.5729C9.54809 13.4374 9.54809 13.2836 9.54809 12.9767V9.25968C9.54809 9.05059 9.54809 8.94614 9.57168 8.84775C9.59263 8.76047 9.62725 8.67687 9.67418 8.60045C9.72666 8.51471 9.8 8.44137 9.94583 8.29554L9.94883 8.2928L14.2765 3.96512C14.4243 3.81728 14.4978 3.74336 14.5507 3.65709C14.5975 3.58061 14.6327 3.49729 14.6536 3.41007C14.6769 3.31269 14.6769 3.2092 14.6769 3.00436V2.36778Z" stroke="black" stroke-width="1.5" stroke-linecap="round" stroke-linejoin="round"/>
</svg>
