<svg width="16" height="16" viewBox="0 0 16 16" fill="none" xmlns="http://www.w3.org/2000/svg">
<path d="M15.0439 11.8554C15.0209 11.4515 14.8263 11.0749 14.5103 10.8252L12.5854 9.29712C12.0051 8.8368 11.1835 8.8933 10.673 9.43103L9.7928 10.3579C9.71259 10.4437 9.56054 10.5295 9.10371 10.4507C7.94663 10.247 5.95967 8.42811 5.58793 6.91385C5.53632 6.70322 5.51261 6.41937 5.68627 6.25337L6.61318 5.37319C7.15092 4.86265 7.20741 4.04106 6.7471 3.46076L5.21898 1.53584C4.96719 1.2199 4.59197 1.02322 4.18676 1.00229C3.78155 0.979274 3.38678 1.13062 3.10153 1.41657L1.92703 2.59108C0.951999 3.56611 0.737867 5.01968 1.32373 6.68713C2.72701 10.6828 7.04279 14.1233 9.39604 14.7343C9.94563 14.8772 10.5601 15 11.1745 15C11.9815 15 12.7905 14.7859 13.458 14.1177L14.6325 12.9432C14.9184 12.6573 15.0698 12.2611 15.0468 11.858L15.0439 11.8554ZM13.9991 12.3094L12.8246 13.4839C12.1481 14.1604 11.1891 14.2734 9.61984 13.8661C7.50369 13.3165 3.45299 10.0525 2.16548 6.38658C1.89557 5.61868 1.58868 4.18687 2.55814 3.21736L3.73265 2.04286C3.83238 1.94312 3.96281 1.88942 4.10369 1.88942H4.13577C4.28781 1.89849 4.42312 1.96823 4.51797 2.0875L6.04608 4.01242C6.21766 4.22862 6.19604 4.53412 5.99587 4.72313L5.06896 5.60331C4.69024 5.9625 4.56749 6.50162 4.71884 7.12306C5.17428 8.98727 7.48633 11.0727 8.94685 11.328C9.3702 11.4013 9.98605 11.4459 10.438 10.9709L11.3182 10.0461C11.5072 9.84594 11.8127 9.82501 12.0289 9.99589L13.9538 11.524C14.0738 11.6189 14.1428 11.7542 14.1519 11.9062C14.161 12.0583 14.1052 12.2005 13.9985 12.31L13.9991 12.3094Z" fill="white" stroke="white" stroke-width="0.5"/>
</svg>
