<svg width="48" height="48" viewBox="0 0 48 48" fill="none" xmlns="http://www.w3.org/2000/svg">
<path d="M38.142 5.87172C34.364 2.09372 29.342 0.0117188 24 0.0117188C18.658 0.0117188 13.636 2.09172 9.858 5.87172C6.08 9.64972 4 14.6717 4 20.0137C4 25.3557 6.08 30.3797 9.874 34.1717L24 47.9877L38.142 34.1557C41.92 30.3777 44 25.3557 44 20.0137C44 14.6717 41.92 9.64972 38.142 5.87172ZM29 11.9997C30.656 11.9997 32 13.3437 32 14.9997C32 16.6557 30.656 17.9997 29 17.9997C27.344 17.9997 26 16.6557 26 14.9997C26 13.3437 27.344 11.9997 29 11.9997ZM19 11.9997C20.656 11.9997 22 13.3437 22 14.9997C22 16.6557 20.656 17.9997 19 17.9997C17.344 17.9997 16 16.6557 16 14.9997C16 13.3437 17.344 11.9997 19 11.9997ZM24 27.9997C20.444 27.9997 17.1 26.6157 14.584 24.0997L17.412 21.2717C19.172 23.0297 21.512 23.9997 23.998 23.9997C26.484 23.9997 28.824 23.0317 30.582 21.2717L33.41 24.0997C30.896 26.6137 27.552 27.9997 23.996 27.9997H24Z" fill="#55AC95"/>
<rect x="13" y="9.28125" width="21.9375" height="21.9375" fill="#55AC95"/>
<circle cx="24" cy="20" r="6" fill="white"/>
</svg>
