<svg width="14" height="14" viewBox="0 0 14 14" fill="none" xmlns="http://www.w3.org/2000/svg">
<g clip-path="url(#clip0_27_1978)">
<path fill-rule="evenodd" clip-rule="evenodd" d="M6.78222 6.76776C6.78222 6.53786 6.96849 6.35098 7.199 6.35098C7.42952 6.35098 7.61578 6.53786 7.61578 6.76776V10.7382C7.61578 10.9687 7.42952 11.1556 7.199 11.1556C6.96849 11.1556 6.78222 10.9687 6.78222 10.7382V6.76776ZM8.67067 7.5878C8.67067 7.3579 8.85693 7.17102 9.08745 7.17102C9.31796 7.17102 9.50423 7.3579 9.50423 7.5878V9.91877C9.50423 10.1487 9.31796 10.3356 9.08745 10.3356C8.85693 10.3356 8.67067 10.1487 8.67067 9.91877V7.5878ZM4.90306 7.5878C4.90306 7.3579 5.08994 7.17102 5.31984 7.17102C5.55036 7.17102 5.73724 7.3579 5.73724 7.5878V9.91877C5.73724 10.1487 5.55036 10.3356 5.31984 10.3356C5.08994 10.3356 4.90306 10.1487 4.90306 9.91877V7.5878ZM11.9718 2.51575H2.42637C2.12762 2.51575 1.85897 2.69586 1.74525 2.97188C1.63091 3.24727 1.69485 3.56447 1.90692 3.77472C2.044 3.91426 2.23088 3.99233 2.42637 3.99233H11.9718C12.2706 3.99233 12.5392 3.81222 12.6529 3.53621C12.7673 3.26081 12.7033 2.94361 12.4913 2.73337C12.3542 2.59382 12.1673 2.51575 11.9718 2.51575ZM11.536 4.82155H2.8622L3.18924 11.7126C3.196 12.2431 3.61894 12.6741 4.14945 12.69H10.2488C10.7793 12.6741 11.2023 12.2431 11.209 11.7126L11.536 4.82579L11.536 4.82155ZM5.51657 1.68342H8.88162V1.23959C8.87978 0.750877 8.4839 0.35561 7.99519 0.353769H6.40307C5.91436 0.356228 5.51848 0.751491 5.51541 1.23959V1.68342H5.51657ZM2.42566 1.68342H2.42627C1.64803 1.70064 0.999491 2.2834 0.899293 3.05487C0.799708 3.82635 1.27859 4.5548 2.0261 4.76942L2.35805 11.7472C2.38326 12.7228 3.1738 13.5047 4.1494 13.5195H10.2488C11.2243 13.5048 12.0149 12.7228 12.0401 11.7472L12.3721 4.76942C13.1196 4.55488 13.5985 3.82643 13.4989 3.05487C13.3987 2.2834 12.7501 1.70062 11.9719 1.68342H9.71709V1.23959C9.71094 0.291686 8.94375 -0.474959 7.9953 -0.480467H6.40318C5.94644 -0.481082 5.50875 -0.299743 5.1854 0.0229921C4.86267 0.345727 4.68133 0.783406 4.68133 1.23954V1.68338L2.42566 1.68342Z" fill="black"/>
</g>
<defs>
<clipPath id="clip0_27_1978">
<rect width="14" height="14" fill="white"/>
</clipPath>
</defs>
</svg>
